<svg width="1810" height="278" viewBox="0 0 1810 278" fill="none" xmlns="http://www.w3.org/2000/svg">
<path d="M901.464 276.536C903.417 278.488 906.583 278.488 908.536 276.536L940.355 244.716C942.308 242.763 942.308 239.597 940.355 237.645C938.403 235.692 935.237 235.692 933.284 237.645L905 265.929L876.716 237.645C874.763 235.692 871.597 235.692 869.645 237.645C867.692 239.597 867.692 242.763 869.645 244.716L901.464 276.536ZM900 183V273H910V183H900Z" fill="#CCCCCC"/>
<path d="M905.5 269.5C905.5 269.5 905.5 288.135 905.5 236M905.5 0.5C905.5 0.5 905.5 144.032 905.5 236M905.5 236C905.5 86 905.5 109 455.5 118.25C5.5 127.5 5.5 0.5 5.5 0.5" stroke="#CCCCCC" stroke-width="10"/>
<path d="M905 270C905 270 905 288.635 905 236.5M905 1C905 1 905 144.532 905 236.5M905 236.5C905 86.5 905 109.5 1355 118.75C1805 128 1805 1 1805 1" stroke="#CCCCCC" stroke-width="10"/>
</svg>
