<?xml version="1.0" standalone="no"?>
<!DOCTYPE svg PUBLIC "-//W3C//DTD SVG 20010904//EN"
 "http://www.w3.org/TR/2001/REC-SVG-20010904/DTD/svg10.dtd">
<svg version="1.0" xmlns="http://www.w3.org/2000/svg"
 width="360.000000pt" height="360.000000pt" viewBox="0 0 360.000000 360.000000"
 preserveAspectRatio="xMidYMid meet">

<g transform="translate(0.000000,360.000000) scale(0.100000,-0.100000)"
fill="#000000" stroke="none">
<path d="M1325 3309 c-83 -44 -113 -87 -132 -186 -8 -41 -12 -78 -9 -80 3 -3
16 20 30 50 29 67 75 136 129 195 44 47 40 52 -18 21z m-10 -27 c-53 -42 -60
-46 -33 -19 16 15 31 27 35 27 4 0 3 -3 -2 -8z"/>
<path d="M2282 3253 c33 -43 76 -109 94 -148 34 -71 45 -64 25 15 -5 19 -12
47 -15 62 -3 14 -18 41 -33 59 -26 31 -108 89 -125 89 -5 0 20 -35 54 -77z"/>
<path d="M1560 2665 c-83 -14 -257 -59 -297 -78 -25 -11 -26 -12 -20 -102 3
-49 24 -178 46 -285 50 -243 68 -377 82 -628 15 -254 6 -679 -14 -719 -22 -42
-47 -164 -47 -226 0 -47 3 -56 28 -74 189 -140 542 -170 792 -69 32 13 80 39
106 56 l47 33 -6 91 c-3 55 -14 117 -27 156 -20 57 -23 92 -28 280 -5 234 10
586 34 769 8 64 33 208 55 321 45 229 59 361 40 383 -16 20 -204 73 -321 92
-115 18 -363 18 -470 0z m630 -1472 c0 -38 3 -118 6 -178 l7 -111 -99 -12
c-54 -7 -144 -15 -199 -19 -83 -5 -98 -3 -87 8 31 33 0 107 -33 79 -18 -15
-20 -61 -2 -79 10 -11 -3 -13 -78 -8 -49 3 -138 11 -197 18 l-108 13 0 66 c0
36 3 116 7 178 l6 112 389 0 388 0 0 -67z"/>
<path d="M1191 2424 c-1 -40 -3 -42 -68 -81 -68 -40 -110 -90 -100 -117 5 -11
15 -9 53 10 27 14 54 22 61 19 8 -3 18 6 23 21 6 14 14 23 18 20 5 -3 12 -207
15 -453 6 -434 24 -933 33 -943 10 -10 23 27 43 124 38 185 46 275 45 531 0
279 -8 355 -65 660 -43 227 -57 278 -58 209z"/>
<path d="M2398 2450 c-12 -26 -86 -459 -100 -575 -16 -141 -16 -561 0 -685 18
-137 43 -257 58 -277 11 -17 13 -16 18 7 8 40 25 543 32 978 4 221 11 402 15
402 5 0 11 -11 15 -24 3 -15 11 -23 19 -20 7 3 36 -5 64 -19 l51 -24 0 28 c0
33 -72 102 -125 119 -31 10 -34 15 -37 58 -2 26 -6 40 -10 32z"/>
<path d="M1140 972 c0 -22 4 -43 9 -46 5 -4 7 12 4 36 -8 57 -13 61 -13 10z"/>
<path d="M1206 465 c-29 -78 31 -179 126 -211 27 -9 52 -14 54 -11 3 3 -11 10
-30 17 -50 16 -102 80 -117 143 -15 69 -24 85 -33 62z"/>
<path d="M2360 457 c0 -33 -33 -119 -55 -145 -14 -17 -44 -39 -67 -50 -24 -12
-36 -21 -28 -21 23 -1 102 38 127 61 28 26 57 111 49 143 -7 26 -26 35 -26 12z"/>
<path d="M1408 233 c7 -3 16 -2 19 1 4 3 -2 6 -13 5 -11 0 -14 -3 -6 -6z"/>
</g>
</svg>
