<svg width="100" height="100" viewBox="0 0 100 100" fill="none" xmlns="http://www.w3.org/2000/svg">
<path fill-rule="evenodd" clip-rule="evenodd" d="M50 100C77.6142 100 100 77.6142 100 50C100 22.3858 77.6142 0 50 0C22.3858 0 0 22.3858 0 50C0 77.6142 22.3858 100 50 100ZM47.9297 45.0078H42.7734V46.6094V49.3828V50.9453H47.9297C50.3776 50.9453 52.5 51.3229 54.2969 52.0781C56.1198 52.8073 57.526 53.9401 58.5156 55.4766C59.5052 56.987 60 58.9271 60 61.2969C60 63.6667 59.5573 65.6328 58.6719 67.1953C57.8125 68.7578 56.5755 69.9297 54.9609 70.7109C53.3724 71.4661 51.4714 71.8438 49.2578 71.8438C47.0443 71.8438 45.1172 71.4401 43.4766 70.6328C41.862 69.7995 40.612 68.6406 39.7266 67.1562C38.8672 65.6719 38.4375 63.9401 38.4375 61.9609H31.2109C31.2109 64.487 31.6797 66.7396 32.6172 68.7188C33.5547 70.6719 34.8568 72.3255 36.5234 73.6797C38.1901 75.0078 40.1042 76.0234 42.2656 76.7266C44.4531 77.4297 46.7839 77.7812 49.2578 77.7812C51.8359 77.7812 54.2188 77.4167 56.4062 76.6875C58.5938 75.9583 60.4948 74.8776 62.1094 73.4453C63.75 72.013 65.013 70.2682 65.8984 68.2109C66.8099 66.1536 67.2656 63.7969 67.2656 61.1406C67.2656 59.4479 66.9792 57.7552 66.4062 56.0625C65.8594 54.3438 64.8958 52.7682 63.5156 51.3359C62.1615 49.9036 60.2995 48.7578 57.9297 47.8984C57.8109 47.8554 57.6906 47.8134 57.5687 47.7725C59.4845 46.9079 61.0632 45.8431 62.3047 44.5781C63.7109 43.1719 64.7396 41.6615 65.3906 40.0469C66.0677 38.4062 66.4062 36.8698 66.4062 35.4375C66.4062 31.8958 65.6901 28.9401 64.2578 26.5703C62.8255 24.1745 60.8203 22.3776 58.2422 21.1797C55.6641 19.9557 52.6562 19.3438 49.2188 19.3438C45.7292 19.3438 42.6562 20.0469 40 21.4531C37.3698 22.8594 35.3255 24.7474 33.8672 27.1172C32.4089 29.487 31.6797 32.1172 31.6797 35.0078H38.9062C38.9062 33.0286 39.3359 31.3099 40.1953 29.8516C41.0807 28.3932 42.2917 27.2734 43.8281 26.4922C45.3906 25.6849 47.1875 25.2812 49.2188 25.2812C51.4583 25.2812 53.3073 25.6589 54.7656 26.4141C56.224 27.1693 57.3177 28.2891 58.0469 29.7734C58.776 31.2578 59.1406 33.0938 59.1406 35.2812C59.1406 37.1302 58.724 38.7969 57.8906 40.2812C57.0833 41.7396 55.8464 42.8984 54.1797 43.7578C52.5391 44.5911 50.4557 45.0078 47.9297 45.0078Z" fill="white"/>
</svg>
