<svg width="544" height="290" viewBox="0 0 544 290" fill="none" xmlns="http://www.w3.org/2000/svg">
<g clip-path="url(#clip0_6_43)">
<path d="M0 222C0 222 62 224.805 84.5 195C102.617 171 102 145 102 145H170C170 145 170.699 188.251 136 233C91.2506 290.711 0 290 0 290V222Z" fill="#5E5E5E"/>
<path d="M0 226C0 226 58 228.5 85 200C104.421 179.5 106 145 106 145H166C166 145 166 187.5 130 234.5C90.5874 285.955 0 286 0 286V226Z" fill="#EFEFEF"/>
<path d="M0 229C0 229 49.5 232.505 80 209C110.5 185.495 109 145 109 145H163C163 145 163 183 129.5 229C90.1739 283 0 283 0 283V229Z" fill="#5E5E5E"/>
<path d="M272 68C272 68 210.003 65.1948 187.503 95C169.385 119 170.003 145 170.003 145L102.003 145C102.003 145 101.304 101.749 136.003 57C180.752 -0.711258 272.003 0 272.003 0L272 68Z" fill="#5E5E5E"/>
<path d="M272.003 64C272.003 64 214.003 61.5 187.003 90C167.582 110.5 166.003 145 166.003 145L106.003 145C106.003 145 106.003 102.5 142.003 55.5C181.415 4.04469 272.003 4 272.003 4V64Z" fill="#EFEFEF"/>
<path d="M272.003 61C272.003 61 222.503 57.4954 192.003 81C161.503 104.505 163.003 145 163.003 145L109.003 145C109.003 145 109.003 107 142.503 61C181.829 7 272.003 7 272.003 7V61Z" fill="#5E5E5E"/>
<path d="M0 255C0 255 66 255 100.5 224C135 193 133.5 175 135 143.5C136.5 112 144.405 89.4425 168 65.5C197.827 35.2337 264.5 33.5 272 33.5C279.5 33.5 295.5 34.5 295.5 34.5" stroke="white" stroke-width="4" stroke-dasharray="50 50"/>
</g>
<g clip-path="url(#clip1_6_43)">
<path d="M544 222C544 222 482 224.805 459.5 195C441.383 171 442 145 442 145H374C374 145 373.301 188.251 408 233C452.749 290.711 544 290 544 290V222Z" fill="#5E5E5E"/>
<path d="M544 226C544 226 486 228.5 459 200C439.579 179.5 438 145 438 145H378C378 145 378 187.5 414 234.5C453.413 285.955 544 286 544 286V226Z" fill="#EFEFEF"/>
<path d="M544 229C544 229 494.5 232.505 464 209C433.5 185.495 435 145 435 145H381C381 145 381 183 414.5 229C453.826 283 544 283 544 283V229Z" fill="#5E5E5E"/>
<path d="M271.997 67.8581C271.997 67.8581 333.997 65.1948 356.497 95C374.615 119 373.997 145 373.997 145L441.997 145C441.997 145 442.696 101.749 407.997 57C363.248 -0.711258 271.997 0 271.997 0L271.997 67.8581Z" fill="#5E5E5E"/>
<path d="M271.997 64C271.997 64 329.997 61.5 356.997 90C376.418 110.5 377.997 145 377.997 145L437.997 145C437.997 145 437.997 102.5 401.997 55.5C362.585 4.04469 271.997 4 271.997 4L271.997 64Z" fill="#EFEFEF"/>
<path d="M271.997 61C271.997 61 321.497 57.4954 351.997 81C382.497 104.505 380.997 145 380.997 145L434.997 145C434.997 145 434.997 107 401.497 61C362.171 7 271.997 7 271.997 7L271.997 61Z" fill="#5E5E5E"/>
<path d="M544 255C544 255 478 255 443.5 224C409 193 410.5 175 409 143.5C407.5 112 399.595 89.4425 376 65.5C346.173 35.2337 295.5 33 271.5 33.5C247.5 34 245 36 245 36" stroke="white" stroke-width="4" stroke-dasharray="50 50"/>
</g>
<path d="M257.5 61.9998C257.5 61.9998 268.006 61.5123 272.5 61.4998C277.384 61.4862 290.5 62.5 290.5 62.5" stroke="#EFEFEF" stroke-width="2"/>
<path d="M288 6.99998C288 6.99998 277.494 5.98763 273 6.00012C268.116 6.0137 255 6.49979 255 6.49979" stroke="#EFEFEF" stroke-width="2"/>
<defs>
<clipPath id="clip0_6_43">
<rect width="272.003" height="290" fill="white"/>
</clipPath>
<clipPath id="clip1_6_43">
<rect width="286" height="290" fill="white" transform="matrix(-1 0 0 1 544 0)"/>
</clipPath>
</defs>
</svg>
