<svg width="374" height="706" viewBox="0 0 374 706" fill="none" xmlns="http://www.w3.org/2000/svg">
<path d="M187 638C187 638 249 640.805 271.5 611C289.617 587 289 561 289 561H357C357 561 357.699 604.251 323 649C278.251 706.711 187 706 187 706V638Z" fill="#5E5E5E"/>
<path d="M187 642C187 642 245 644.5 272 616C291.421 595.5 293 561 293 561H353C353 561 353 603.5 317 650.5C277.587 701.955 187 702 187 702V642Z" fill="#EFEFEF"/>
<path d="M187 645C187 645 236.5 648.505 267 625C297.5 601.495 296 561 296 561H350C350 561 350 599 316.5 645C277.174 699 187 699 187 699V645Z" fill="#5E5E5E"/>
<path d="M187 671C187 671 253 671 287.5 640C322 609 322 561 322 561" stroke="white" stroke-width="4" stroke-dasharray="50 50"/>
<rect y="638" width="187" height="68" fill="#5E5E5E"/>
<rect y="642" width="187" height="60" fill="#EFEFEF"/>
<rect y="645" width="187" height="54" fill="#5E5E5E"/>
<line y1="671" x2="187.003" y2="671" stroke="white" stroke-width="4" stroke-dasharray="50 50"/>
<rect x="289" y="561.003" width="187" height="68" transform="rotate(-90 289 561.003)" fill="#5E5E5E"/>
<rect x="293" y="561.003" width="187" height="60" transform="rotate(-90 293 561.003)" fill="#EFEFEF"/>
<rect x="296" y="561.003" width="187" height="54" transform="rotate(-90 296 561.003)" fill="#5E5E5E"/>
<line x1="322" y1="561.003" x2="322" y2="374" stroke="white" stroke-width="4" stroke-dasharray="50 50"/>
<rect x="289" y="374.003" width="187" height="68" transform="rotate(-90 289 374.003)" fill="#5E5E5E"/>
<rect x="293" y="374.003" width="187" height="60" transform="rotate(-90 293 374.003)" fill="#EFEFEF"/>
<rect x="296" y="374.003" width="187" height="54" transform="rotate(-90 296 374.003)" fill="#5E5E5E"/>
<line x1="322" y1="374.003" x2="322" y2="187" stroke="white" stroke-width="4" stroke-dasharray="50 50"/>
<rect x="289" y="187.003" width="187" height="68" transform="rotate(-90 289 187.003)" fill="#5E5E5E"/>
<rect x="293" y="187.003" width="187" height="60" transform="rotate(-90 293 187.003)" fill="#EFEFEF"/>
<rect x="296" y="187.003" width="187" height="54" transform="rotate(-90 296 187.003)" fill="#5E5E5E"/>
<line x1="322" y1="187.003" x2="322" y2="1.52588e-05" stroke="white" stroke-width="4" stroke-dasharray="50 50"/>
</svg>
