<svg width="100" height="100" viewBox="0 0 100 100" fill="none" xmlns="http://www.w3.org/2000/svg">
<path fill-rule="evenodd" clip-rule="evenodd" d="M50 100C77.6142 100 100 77.6142 100 50C100 22.3858 77.6142 0 50 0C22.3858 0 0 22.3858 0 50C0 77.6142 22.3858 100 50 100ZM69.4922 77V71.0625H40.9766L56.2109 54.5391C57.6693 52.9505 59.0365 51.3359 60.3125 49.6953C61.6146 48.0547 62.7474 46.388 63.7109 44.6953C64.7005 43.0026 65.4688 41.3099 66.0156 39.6172C66.5885 37.8984 66.875 36.2057 66.875 34.5391C66.875 31.4922 66.1849 28.8359 64.8047 26.5703C63.4505 24.2786 61.4974 22.5078 58.9453 21.2578C56.3932 19.9818 53.3203 19.3438 49.7266 19.3438C45.6901 19.3438 42.2917 20.138 39.5312 21.7266C36.7708 23.2891 34.6875 25.3984 33.2812 28.0547C31.875 30.7109 31.1719 33.6406 31.1719 36.8438H38.3984C38.3984 34.5781 38.8151 32.5729 39.6484 30.8281C40.4818 29.0833 41.7318 27.7292 43.3984 26.7656C45.0911 25.776 47.2005 25.2812 49.7266 25.2812C51.8359 25.2812 53.6328 25.737 55.1172 26.6484C56.6016 27.5599 57.7214 28.7839 58.4766 30.3203C59.2578 31.8307 59.6484 33.5234 59.6484 35.3984C59.6484 36.8828 59.388 38.3411 58.8672 39.7734C58.3724 41.1797 57.487 42.7812 56.2109 44.5781C54.9609 46.349 53.1901 48.5104 50.8984 51.0625L32.2656 71.8047V77H69.4922Z" fill="white"/>
</svg>
